<svg width="25" height="27" viewBox="0 0 25 27" fill="none" xmlns="http://www.w3.org/2000/svg">
<path d="M11.3797 18.336C11.2485 18.3363 11.1184 18.3089 10.9971 18.2553C10.8758 18.2017 10.7655 18.123 10.6727 18.0237L6.43073 13.4855C6.33515 13.3869 6.25889 13.269 6.2064 13.1385C6.15391 13.0081 6.12623 12.8677 6.12498 12.7257C6.12374 12.5837 6.14895 12.4428 6.19914 12.3114C6.24933 12.1799 6.32351 12.0604 6.41733 11.9599C6.51116 11.8594 6.62276 11.7799 6.74562 11.726C6.86847 11.6722 7.00013 11.645 7.13291 11.6461C7.26569 11.6473 7.39693 11.6767 7.51897 11.7326C7.64101 11.7886 7.75141 11.87 7.84373 11.9721L11.3787 15.753L17.7437 8.94733C17.9312 8.74663 18.1856 8.63383 18.4509 8.63373C18.7161 8.63363 18.9706 8.74624 19.1582 8.94679C19.3459 9.14735 19.4513 9.41941 19.4514 9.70314C19.4515 9.98686 19.3462 10.259 19.1587 10.4597L12.0867 18.0237C11.9939 18.123 11.8837 18.2017 11.7623 18.2553C11.641 18.3089 11.511 18.3363 11.3797 18.336Z" fill="#2FAB73"/>
</svg>
