<svg width="103" height="18" viewBox="0 0 103 18" fill="none" xmlns="http://www.w3.org/2000/svg">
<mask id="path-1-outside-1_1_284" maskUnits="userSpaceOnUse" x="0" y="0.116211" width="103" height="18" fill="black">
<rect fill="white" y="0.116211" width="103" height="18"/>
<path d="M2.04 16.1162C1.90667 16.1162 1.79333 16.0695 1.7 15.9762C1.60667 15.8829 1.56 15.7695 1.56 15.6362V2.59621C1.56 2.44954 1.60667 2.33621 1.7 2.25621C1.79333 2.16288 1.90667 2.11621 2.04 2.11621H3.92C4.06667 2.11621 4.18 2.16288 4.26 2.25621C4.35333 2.33621 4.4 2.44954 4.4 2.59621V13.7162H10.74C10.8867 13.7162 11.0067 13.7629 11.1 13.8562C11.1933 13.9495 11.24 14.0629 11.24 14.1962V15.6362C11.24 15.7695 11.1933 15.8829 11.1 15.9762C11.0067 16.0695 10.8867 16.1162 10.74 16.1162H2.04ZM15.9611 16.3162C15.2811 16.3162 14.6544 16.1829 14.0811 15.9162C13.5211 15.6362 13.0744 15.2629 12.7411 14.7962C12.4211 14.3295 12.2611 13.8162 12.2611 13.2562C12.2611 12.3495 12.6278 11.6162 13.3611 11.0562C14.0944 10.4962 15.1011 10.1162 16.3811 9.91621L19.1211 9.51621V9.09621C19.1211 8.52288 18.9744 8.08954 18.6811 7.79621C18.3878 7.50288 17.9211 7.35621 17.2811 7.35621C16.8411 7.35621 16.4878 7.43621 16.2211 7.59621C15.9544 7.75621 15.7344 7.92288 15.5611 8.09621C15.4011 8.25621 15.2944 8.36288 15.2411 8.41621C15.1878 8.57621 15.0878 8.65621 14.9411 8.65621H13.3811C13.2611 8.65621 13.1544 8.61621 13.0611 8.53621C12.9811 8.45621 12.9411 8.34954 12.9411 8.21621C12.9544 7.88288 13.1144 7.50954 13.4211 7.09621C13.7411 6.66954 14.2278 6.30288 14.8811 5.99621C15.5344 5.67621 16.3411 5.51621 17.3011 5.51621C18.8744 5.51621 20.0211 5.86954 20.7411 6.57621C21.4611 7.28288 21.8211 8.20954 21.8211 9.35621V15.6362C21.8211 15.7695 21.7744 15.8829 21.6811 15.9762C21.6011 16.0695 21.4878 16.1162 21.3411 16.1162H19.6811C19.5478 16.1162 19.4344 16.0695 19.3411 15.9762C19.2478 15.8829 19.2011 15.7695 19.2011 15.6362V14.8562C18.9078 15.2829 18.4944 15.6362 17.9611 15.9162C17.4278 16.1829 16.7611 16.3162 15.9611 16.3162ZM16.6411 14.3962C17.3744 14.3962 17.9744 14.1562 18.4411 13.6762C18.9078 13.1962 19.1411 12.5029 19.1411 11.5962V11.1962L17.1411 11.5162C15.6078 11.7562 14.8411 12.2695 14.8411 13.0562C14.8411 13.4829 15.0144 13.8162 15.3611 14.0562C15.7211 14.2829 16.1478 14.3962 16.6411 14.3962ZM28.3464 16.3162C27.3331 16.3162 26.4864 16.1629 25.8064 15.8562C25.1264 15.5495 24.6197 15.1962 24.2864 14.7962C23.9664 14.3829 23.8064 14.0295 23.8064 13.7362C23.8064 13.6029 23.8464 13.4962 23.9264 13.4162C24.0197 13.3362 24.1264 13.2962 24.2464 13.2962H25.8864C25.9931 13.2962 26.0864 13.3495 26.1664 13.4562C26.2331 13.5095 26.3797 13.6362 26.6064 13.8362C26.8464 14.0362 27.1131 14.1962 27.4064 14.3162C27.7131 14.4229 28.0464 14.4762 28.4064 14.4762C28.9397 14.4762 29.3731 14.3762 29.7064 14.1762C30.0397 13.9629 30.2064 13.6629 30.2064 13.2762C30.2064 13.0095 30.1264 12.7962 29.9664 12.6362C29.8197 12.4629 29.5464 12.3095 29.1464 12.1762C28.7597 12.0295 28.1731 11.8695 27.3864 11.6962C26.2531 11.4562 25.4131 11.0895 24.8664 10.5962C24.3331 10.1029 24.0664 9.44954 24.0664 8.63621C24.0664 8.10288 24.2264 7.60288 24.5464 7.13621C24.8664 6.65621 25.3397 6.26954 25.9664 5.97621C26.6064 5.66954 27.3664 5.51621 28.2464 5.51621C29.1531 5.51621 29.9331 5.66288 30.5864 5.95621C31.2397 6.23621 31.7331 6.57621 32.0664 6.97621C32.4131 7.37621 32.5864 7.72954 32.5864 8.03621C32.5864 8.15621 32.5397 8.26288 32.4464 8.35621C32.3664 8.43621 32.2664 8.47621 32.1464 8.47621H30.6464C30.4997 8.47621 30.3864 8.42288 30.3064 8.31621C30.2131 8.24954 30.0597 8.12954 29.8464 7.95621C29.6464 7.76954 29.4197 7.62288 29.1664 7.51621C28.9131 7.40954 28.6064 7.35621 28.2464 7.35621C27.7531 7.35621 27.3731 7.46288 27.1064 7.67621C26.8397 7.88954 26.7064 8.16954 26.7064 8.51621C26.7064 8.75621 26.7664 8.95621 26.8864 9.11621C27.0197 9.27621 27.2797 9.42954 27.6664 9.57621C28.0531 9.70954 28.6331 9.84954 29.4064 9.99621C31.8064 10.4629 33.0064 11.5095 33.0064 13.1362C33.0064 14.0829 32.5931 14.8495 31.7664 15.4362C30.9531 16.0229 29.8131 16.3162 28.3464 16.3162ZM35.5505 16.1162C35.4171 16.1162 35.3038 16.0695 35.2105 15.9762C35.1171 15.8829 35.0705 15.7695 35.0705 15.6362V2.39621C35.0705 2.24954 35.1171 2.13621 35.2105 2.05621C35.3038 1.96288 35.4171 1.91621 35.5505 1.91621H37.2305C37.3771 1.91621 37.4905 1.96288 37.5705 2.05621C37.6638 2.13621 37.7105 2.24954 37.7105 2.39621V15.6362C37.7105 15.7695 37.6638 15.8829 37.5705 15.9762C37.4905 16.0695 37.3771 16.1162 37.2305 16.1162H35.5505ZM44.863 16.3162C43.3696 16.3162 42.183 15.8895 41.303 15.0362C40.4363 14.1829 39.9763 12.9695 39.923 11.3962L39.903 10.8962C39.903 9.22954 40.3363 7.91621 41.203 6.95621C42.083 5.99621 43.2963 5.51621 44.843 5.51621C46.4296 5.51621 47.6496 5.99621 48.503 6.95621C49.3696 7.91621 49.803 9.19621 49.803 10.7962V11.2162C49.803 11.3495 49.7563 11.4629 49.663 11.5562C49.5696 11.6495 49.4496 11.6962 49.303 11.6962H42.663V11.8562C42.6896 12.6029 42.8896 13.2229 43.263 13.7162C43.6496 14.1962 44.1763 14.4362 44.843 14.4362C45.603 14.4362 46.223 14.1295 46.703 13.5162C46.823 13.3695 46.9163 13.2829 46.983 13.2562C47.0496 13.2162 47.163 13.1962 47.323 13.1962H49.083C49.203 13.1962 49.303 13.2295 49.383 13.2962C49.4763 13.3629 49.523 13.4562 49.523 13.5762C49.523 13.8962 49.3296 14.2762 48.943 14.7162C48.5696 15.1429 48.0296 15.5162 47.323 15.8362C46.6163 16.1562 45.7963 16.3162 44.863 16.3162ZM47.043 9.99621V9.95621C47.043 9.16954 46.843 8.54288 46.443 8.07621C46.0563 7.59621 45.523 7.35621 44.843 7.35621C44.163 7.35621 43.6296 7.59621 43.243 8.07621C42.8563 8.54288 42.663 9.16954 42.663 9.95621V9.99621H47.043ZM55.8855 16.3162C54.8721 16.3162 54.0255 16.1629 53.3455 15.8562C52.6655 15.5495 52.1588 15.1962 51.8255 14.7962C51.5055 14.3829 51.3455 14.0295 51.3455 13.7362C51.3455 13.6029 51.3855 13.4962 51.4655 13.4162C51.5588 13.3362 51.6655 13.2962 51.7855 13.2962H53.4255C53.5321 13.2962 53.6255 13.3495 53.7055 13.4562C53.7721 13.5095 53.9188 13.6362 54.1455 13.8362C54.3855 14.0362 54.6521 14.1962 54.9455 14.3162C55.2521 14.4229 55.5855 14.4762 55.9455 14.4762C56.4788 14.4762 56.9121 14.3762 57.2455 14.1762C57.5788 13.9629 57.7455 13.6629 57.7455 13.2762C57.7455 13.0095 57.6655 12.7962 57.5055 12.6362C57.3588 12.4629 57.0855 12.3095 56.6855 12.1762C56.2988 12.0295 55.7121 11.8695 54.9255 11.6962C53.7921 11.4562 52.9521 11.0895 52.4055 10.5962C51.8721 10.1029 51.6055 9.44954 51.6055 8.63621C51.6055 8.10288 51.7655 7.60288 52.0855 7.13621C52.4055 6.65621 52.8788 6.26954 53.5055 5.97621C54.1455 5.66954 54.9055 5.51621 55.7855 5.51621C56.6921 5.51621 57.4721 5.66288 58.1255 5.95621C58.7788 6.23621 59.2721 6.57621 59.6055 6.97621C59.9521 7.37621 60.1255 7.72954 60.1255 8.03621C60.1255 8.15621 60.0788 8.26288 59.9855 8.35621C59.9055 8.43621 59.8055 8.47621 59.6855 8.47621H58.1855C58.0388 8.47621 57.9255 8.42288 57.8455 8.31621C57.7521 8.24954 57.5988 8.12954 57.3855 7.95621C57.1855 7.76954 56.9588 7.62288 56.7055 7.51621C56.4521 7.40954 56.1455 7.35621 55.7855 7.35621C55.2921 7.35621 54.9121 7.46288 54.6455 7.67621C54.3788 7.88954 54.2455 8.16954 54.2455 8.51621C54.2455 8.75621 54.3055 8.95621 54.4255 9.11621C54.5588 9.27621 54.8188 9.42954 55.2055 9.57621C55.5921 9.70954 56.1721 9.84954 56.9455 9.99621C59.3455 10.4629 60.5455 11.5095 60.5455 13.1362C60.5455 14.0829 60.1321 14.8495 59.3055 15.4362C58.4921 16.0229 57.3521 16.3162 55.8855 16.3162ZM66.6295 16.1162C66.4029 16.1162 66.2162 16.0629 66.0695 15.9562C65.9362 15.8362 65.8429 15.6895 65.7895 15.5162L61.7495 2.71621L61.7095 2.53621C61.7095 2.42954 61.7495 2.33621 61.8295 2.25621C61.9229 2.16288 62.0295 2.11621 62.1495 2.11621H64.7695C64.9695 2.11621 65.1295 2.17621 65.2495 2.29621C65.3829 2.40288 65.4695 2.52288 65.5095 2.65621L68.2295 11.6962L70.9695 2.65621C71.0095 2.50954 71.0895 2.38288 71.2095 2.27621C71.3429 2.16954 71.5095 2.11621 71.7095 2.11621H74.3295C74.4495 2.11621 74.5495 2.16288 74.6295 2.25621C74.7095 2.33621 74.7495 2.42954 74.7495 2.53621C74.7495 2.60288 74.7429 2.66288 74.7295 2.71621L70.6695 15.5162C70.6295 15.6895 70.5362 15.8362 70.3895 15.9562C70.2562 16.0629 70.0762 16.1162 69.8495 16.1162H66.6295ZM77.0748 16.1162C76.9415 16.1162 76.8215 16.0695 76.7148 15.9762C76.6215 15.8695 76.5748 15.7495 76.5748 15.6162V2.63621C76.5748 2.48954 76.6215 2.36954 76.7148 2.27621C76.8082 2.16954 76.9282 2.11621 77.0748 2.11621H82.7348C84.4682 2.11621 85.8282 2.50954 86.8148 3.29621C87.8015 4.08288 88.2948 5.23621 88.2948 6.75621C88.2948 8.27621 87.8015 9.41621 86.8148 10.1762C85.8282 10.9229 84.4682 11.2962 82.7348 11.2962H80.4548V15.6162C80.4548 15.7495 80.4082 15.8695 80.3148 15.9762C80.2215 16.0695 80.1015 16.1162 79.9548 16.1162H77.0748ZM82.6348 8.43621C83.1815 8.43621 83.6082 8.29621 83.9148 8.01621C84.2348 7.72288 84.3948 7.29621 84.3948 6.73621C84.3948 6.21621 84.2482 5.79621 83.9548 5.47621C83.6748 5.15621 83.2348 4.99621 82.6348 4.99621H80.3948V8.43621H82.6348ZM90.6491 16.1162C90.5157 16.1162 90.3957 16.0695 90.2891 15.9762C90.1957 15.8695 90.1491 15.7495 90.1491 15.6162V2.63621C90.1491 2.48954 90.1957 2.36954 90.2891 2.27621C90.3824 2.16954 90.5024 2.11621 90.6491 2.11621H92.9091C93.2157 2.11621 93.4424 2.24288 93.5891 2.49621L98.3091 9.95621V2.63621C98.3091 2.48954 98.3557 2.36954 98.4491 2.27621C98.5424 2.16954 98.6624 2.11621 98.8091 2.11621H101.349C101.496 2.11621 101.616 2.16954 101.709 2.27621C101.802 2.36954 101.849 2.48954 101.849 2.63621V15.5962C101.849 15.7429 101.802 15.8695 101.709 15.9762C101.616 16.0695 101.496 16.1162 101.349 16.1162H99.0891C98.7824 16.1162 98.5557 15.9895 98.4091 15.7362L93.7091 8.57621V15.6162C93.7091 15.7629 93.6557 15.8829 93.5491 15.9762C93.4557 16.0695 93.3357 16.1162 93.1891 16.1162H90.6491Z"/>
</mask>
<path d="M2.04 16.1162C1.90667 16.1162 1.79333 16.0695 1.7 15.9762C1.60667 15.8829 1.56 15.7695 1.56 15.6362V2.59621C1.56 2.44954 1.60667 2.33621 1.7 2.25621C1.79333 2.16288 1.90667 2.11621 2.04 2.11621H3.92C4.06667 2.11621 4.18 2.16288 4.26 2.25621C4.35333 2.33621 4.4 2.44954 4.4 2.59621V13.7162H10.74C10.8867 13.7162 11.0067 13.7629 11.1 13.8562C11.1933 13.9495 11.24 14.0629 11.24 14.1962V15.6362C11.24 15.7695 11.1933 15.8829 11.1 15.9762C11.0067 16.0695 10.8867 16.1162 10.74 16.1162H2.04ZM15.9611 16.3162C15.2811 16.3162 14.6544 16.1829 14.0811 15.9162C13.5211 15.6362 13.0744 15.2629 12.7411 14.7962C12.4211 14.3295 12.2611 13.8162 12.2611 13.2562C12.2611 12.3495 12.6278 11.6162 13.3611 11.0562C14.0944 10.4962 15.1011 10.1162 16.3811 9.91621L19.1211 9.51621V9.09621C19.1211 8.52288 18.9744 8.08954 18.6811 7.79621C18.3878 7.50288 17.9211 7.35621 17.2811 7.35621C16.8411 7.35621 16.4878 7.43621 16.2211 7.59621C15.9544 7.75621 15.7344 7.92288 15.5611 8.09621C15.4011 8.25621 15.2944 8.36288 15.2411 8.41621C15.1878 8.57621 15.0878 8.65621 14.9411 8.65621H13.3811C13.2611 8.65621 13.1544 8.61621 13.0611 8.53621C12.9811 8.45621 12.9411 8.34954 12.9411 8.21621C12.9544 7.88288 13.1144 7.50954 13.4211 7.09621C13.7411 6.66954 14.2278 6.30288 14.8811 5.99621C15.5344 5.67621 16.3411 5.51621 17.3011 5.51621C18.8744 5.51621 20.0211 5.86954 20.7411 6.57621C21.4611 7.28288 21.8211 8.20954 21.8211 9.35621V15.6362C21.8211 15.7695 21.7744 15.8829 21.6811 15.9762C21.6011 16.0695 21.4878 16.1162 21.3411 16.1162H19.6811C19.5478 16.1162 19.4344 16.0695 19.3411 15.9762C19.2478 15.8829 19.2011 15.7695 19.2011 15.6362V14.8562C18.9078 15.2829 18.4944 15.6362 17.9611 15.9162C17.4278 16.1829 16.7611 16.3162 15.9611 16.3162ZM16.6411 14.3962C17.3744 14.3962 17.9744 14.1562 18.4411 13.6762C18.9078 13.1962 19.1411 12.5029 19.1411 11.5962V11.1962L17.1411 11.5162C15.6078 11.7562 14.8411 12.2695 14.8411 13.0562C14.8411 13.4829 15.0144 13.8162 15.3611 14.0562C15.7211 14.2829 16.1478 14.3962 16.6411 14.3962ZM28.3464 16.3162C27.3331 16.3162 26.4864 16.1629 25.8064 15.8562C25.1264 15.5495 24.6197 15.1962 24.2864 14.7962C23.9664 14.3829 23.8064 14.0295 23.8064 13.7362C23.8064 13.6029 23.8464 13.4962 23.9264 13.4162C24.0197 13.3362 24.1264 13.2962 24.2464 13.2962H25.8864C25.9931 13.2962 26.0864 13.3495 26.1664 13.4562C26.2331 13.5095 26.3797 13.6362 26.6064 13.8362C26.8464 14.0362 27.1131 14.1962 27.4064 14.3162C27.7131 14.4229 28.0464 14.4762 28.4064 14.4762C28.9397 14.4762 29.3731 14.3762 29.7064 14.1762C30.0397 13.9629 30.2064 13.6629 30.2064 13.2762C30.2064 13.0095 30.1264 12.7962 29.9664 12.6362C29.8197 12.4629 29.5464 12.3095 29.1464 12.1762C28.7597 12.0295 28.1731 11.8695 27.3864 11.6962C26.2531 11.4562 25.4131 11.0895 24.8664 10.5962C24.3331 10.1029 24.0664 9.44954 24.0664 8.63621C24.0664 8.10288 24.2264 7.60288 24.5464 7.13621C24.8664 6.65621 25.3397 6.26954 25.9664 5.97621C26.6064 5.66954 27.3664 5.51621 28.2464 5.51621C29.1531 5.51621 29.9331 5.66288 30.5864 5.95621C31.2397 6.23621 31.7331 6.57621 32.0664 6.97621C32.4131 7.37621 32.5864 7.72954 32.5864 8.03621C32.5864 8.15621 32.5397 8.26288 32.4464 8.35621C32.3664 8.43621 32.2664 8.47621 32.1464 8.47621H30.6464C30.4997 8.47621 30.3864 8.42288 30.3064 8.31621C30.2131 8.24954 30.0597 8.12954 29.8464 7.95621C29.6464 7.76954 29.4197 7.62288 29.1664 7.51621C28.9131 7.40954 28.6064 7.35621 28.2464 7.35621C27.7531 7.35621 27.3731 7.46288 27.1064 7.67621C26.8397 7.88954 26.7064 8.16954 26.7064 8.51621C26.7064 8.75621 26.7664 8.95621 26.8864 9.11621C27.0197 9.27621 27.2797 9.42954 27.6664 9.57621C28.0531 9.70954 28.6331 9.84954 29.4064 9.99621C31.8064 10.4629 33.0064 11.5095 33.0064 13.1362C33.0064 14.0829 32.5931 14.8495 31.7664 15.4362C30.9531 16.0229 29.8131 16.3162 28.3464 16.3162ZM35.5505 16.1162C35.4171 16.1162 35.3038 16.0695 35.2105 15.9762C35.1171 15.8829 35.0705 15.7695 35.0705 15.6362V2.39621C35.0705 2.24954 35.1171 2.13621 35.2105 2.05621C35.3038 1.96288 35.4171 1.91621 35.5505 1.91621H37.2305C37.3771 1.91621 37.4905 1.96288 37.5705 2.05621C37.6638 2.13621 37.7105 2.24954 37.7105 2.39621V15.6362C37.7105 15.7695 37.6638 15.8829 37.5705 15.9762C37.4905 16.0695 37.3771 16.1162 37.2305 16.1162H35.5505ZM44.863 16.3162C43.3696 16.3162 42.183 15.8895 41.303 15.0362C40.4363 14.1829 39.9763 12.9695 39.923 11.3962L39.903 10.8962C39.903 9.22954 40.3363 7.91621 41.203 6.95621C42.083 5.99621 43.2963 5.51621 44.843 5.51621C46.4296 5.51621 47.6496 5.99621 48.503 6.95621C49.3696 7.91621 49.803 9.19621 49.803 10.7962V11.2162C49.803 11.3495 49.7563 11.4629 49.663 11.5562C49.5696 11.6495 49.4496 11.6962 49.303 11.6962H42.663V11.8562C42.6896 12.6029 42.8896 13.2229 43.263 13.7162C43.6496 14.1962 44.1763 14.4362 44.843 14.4362C45.603 14.4362 46.223 14.1295 46.703 13.5162C46.823 13.3695 46.9163 13.2829 46.983 13.2562C47.0496 13.2162 47.163 13.1962 47.323 13.1962H49.083C49.203 13.1962 49.303 13.2295 49.383 13.2962C49.4763 13.3629 49.523 13.4562 49.523 13.5762C49.523 13.8962 49.3296 14.2762 48.943 14.7162C48.5696 15.1429 48.0296 15.5162 47.323 15.8362C46.6163 16.1562 45.7963 16.3162 44.863 16.3162ZM47.043 9.99621V9.95621C47.043 9.16954 46.843 8.54288 46.443 8.07621C46.0563 7.59621 45.523 7.35621 44.843 7.35621C44.163 7.35621 43.6296 7.59621 43.243 8.07621C42.8563 8.54288 42.663 9.16954 42.663 9.95621V9.99621H47.043ZM55.8855 16.3162C54.8721 16.3162 54.0255 16.1629 53.3455 15.8562C52.6655 15.5495 52.1588 15.1962 51.8255 14.7962C51.5055 14.3829 51.3455 14.0295 51.3455 13.7362C51.3455 13.6029 51.3855 13.4962 51.4655 13.4162C51.5588 13.3362 51.6655 13.2962 51.7855 13.2962H53.4255C53.5321 13.2962 53.6255 13.3495 53.7055 13.4562C53.7721 13.5095 53.9188 13.6362 54.1455 13.8362C54.3855 14.0362 54.6521 14.1962 54.9455 14.3162C55.2521 14.4229 55.5855 14.4762 55.9455 14.4762C56.4788 14.4762 56.9121 14.3762 57.2455 14.1762C57.5788 13.9629 57.7455 13.6629 57.7455 13.2762C57.7455 13.0095 57.6655 12.7962 57.5055 12.6362C57.3588 12.4629 57.0855 12.3095 56.6855 12.1762C56.2988 12.0295 55.7121 11.8695 54.9255 11.6962C53.7921 11.4562 52.9521 11.0895 52.4055 10.5962C51.8721 10.1029 51.6055 9.44954 51.6055 8.63621C51.6055 8.10288 51.7655 7.60288 52.0855 7.13621C52.4055 6.65621 52.8788 6.26954 53.5055 5.97621C54.1455 5.66954 54.9055 5.51621 55.7855 5.51621C56.6921 5.51621 57.4721 5.66288 58.1255 5.95621C58.7788 6.23621 59.2721 6.57621 59.6055 6.97621C59.9521 7.37621 60.1255 7.72954 60.1255 8.03621C60.1255 8.15621 60.0788 8.26288 59.9855 8.35621C59.9055 8.43621 59.8055 8.47621 59.6855 8.47621H58.1855C58.0388 8.47621 57.9255 8.42288 57.8455 8.31621C57.7521 8.24954 57.5988 8.12954 57.3855 7.95621C57.1855 7.76954 56.9588 7.62288 56.7055 7.51621C56.4521 7.40954 56.1455 7.35621 55.7855 7.35621C55.2921 7.35621 54.9121 7.46288 54.6455 7.67621C54.3788 7.88954 54.2455 8.16954 54.2455 8.51621C54.2455 8.75621 54.3055 8.95621 54.4255 9.11621C54.5588 9.27621 54.8188 9.42954 55.2055 9.57621C55.5921 9.70954 56.1721 9.84954 56.9455 9.99621C59.3455 10.4629 60.5455 11.5095 60.5455 13.1362C60.5455 14.0829 60.1321 14.8495 59.3055 15.4362C58.4921 16.0229 57.3521 16.3162 55.8855 16.3162ZM66.6295 16.1162C66.4029 16.1162 66.2162 16.0629 66.0695 15.9562C65.9362 15.8362 65.8429 15.6895 65.7895 15.5162L61.7495 2.71621L61.7095 2.53621C61.7095 2.42954 61.7495 2.33621 61.8295 2.25621C61.9229 2.16288 62.0295 2.11621 62.1495 2.11621H64.7695C64.9695 2.11621 65.1295 2.17621 65.2495 2.29621C65.3829 2.40288 65.4695 2.52288 65.5095 2.65621L68.2295 11.6962L70.9695 2.65621C71.0095 2.50954 71.0895 2.38288 71.2095 2.27621C71.3429 2.16954 71.5095 2.11621 71.7095 2.11621H74.3295C74.4495 2.11621 74.5495 2.16288 74.6295 2.25621C74.7095 2.33621 74.7495 2.42954 74.7495 2.53621C74.7495 2.60288 74.7429 2.66288 74.7295 2.71621L70.6695 15.5162C70.6295 15.6895 70.5362 15.8362 70.3895 15.9562C70.2562 16.0629 70.0762 16.1162 69.8495 16.1162H66.6295ZM77.0748 16.1162C76.9415 16.1162 76.8215 16.0695 76.7148 15.9762C76.6215 15.8695 76.5748 15.7495 76.5748 15.6162V2.63621C76.5748 2.48954 76.6215 2.36954 76.7148 2.27621C76.8082 2.16954 76.9282 2.11621 77.0748 2.11621H82.7348C84.4682 2.11621 85.8282 2.50954 86.8148 3.29621C87.8015 4.08288 88.2948 5.23621 88.2948 6.75621C88.2948 8.27621 87.8015 9.41621 86.8148 10.1762C85.8282 10.9229 84.4682 11.2962 82.7348 11.2962H80.4548V15.6162C80.4548 15.7495 80.4082 15.8695 80.3148 15.9762C80.2215 16.0695 80.1015 16.1162 79.9548 16.1162H77.0748ZM82.6348 8.43621C83.1815 8.43621 83.6082 8.29621 83.9148 8.01621C84.2348 7.72288 84.3948 7.29621 84.3948 6.73621C84.3948 6.21621 84.2482 5.79621 83.9548 5.47621C83.6748 5.15621 83.2348 4.99621 82.6348 4.99621H80.3948V8.43621H82.6348ZM90.6491 16.1162C90.5157 16.1162 90.3957 16.0695 90.2891 15.9762C90.1957 15.8695 90.1491 15.7495 90.1491 15.6162V2.63621C90.1491 2.48954 90.1957 2.36954 90.2891 2.27621C90.3824 2.16954 90.5024 2.11621 90.6491 2.11621H92.9091C93.2157 2.11621 93.4424 2.24288 93.5891 2.49621L98.3091 9.95621V2.63621C98.3091 2.48954 98.3557 2.36954 98.4491 2.27621C98.5424 2.16954 98.6624 2.11621 98.8091 2.11621H101.349C101.496 2.11621 101.616 2.16954 101.709 2.27621C101.802 2.36954 101.849 2.48954 101.849 2.63621V15.5962C101.849 15.7429 101.802 15.8695 101.709 15.9762C101.616 16.0695 101.496 16.1162 101.349 16.1162H99.0891C98.7824 16.1162 98.5557 15.9895 98.4091 15.7362L93.7091 8.57621V15.6162C93.7091 15.7629 93.6557 15.8829 93.5491 15.9762C93.4557 16.0695 93.3357 16.1162 93.1891 16.1162H90.6491Z" fill="#0B132A"/>
<path d="M1.7 15.9762L0.992893 16.6833H0.992894L1.7 15.9762ZM1.7 2.25621L2.35079 3.01547L2.37995 2.99047L2.40711 2.96332L1.7 2.25621ZM4.26 2.25621L3.50074 2.907L3.5508 2.96541L3.60921 3.01547L4.26 2.25621ZM4.4 13.7162H3.4V14.7162H4.4V13.7162ZM11.1 13.8562L10.3929 14.5633L10.3929 14.5633L11.1 13.8562ZM11.1 15.9762L10.3929 15.2691L10.3929 15.2691L11.1 15.9762ZM2.04 15.1162C2.0924 15.1162 2.1614 15.1259 2.23575 15.1565C2.31031 15.1872 2.36767 15.2297 2.40711 15.2691L0.992894 16.6833C1.27589 16.9663 1.64448 17.1162 2.04 17.1162V15.1162ZM2.40711 15.2691C2.44654 15.3085 2.48898 15.3659 2.51968 15.4405C2.55029 15.5148 2.56 15.5838 2.56 15.6362H0.56C0.56 16.0317 0.709894 16.4003 0.992893 16.6833L2.40711 15.2691ZM2.56 15.6362V2.59621H0.56V15.6362H2.56ZM2.56 2.59621C2.56 2.62835 2.55483 2.69659 2.51968 2.78196C2.4827 2.87177 2.42366 2.95301 2.35079 3.01547L1.04921 1.49695C0.691123 1.80388 0.56 2.21962 0.56 2.59621H2.56ZM2.40711 2.96332C2.36767 3.00275 2.31031 3.04519 2.23575 3.07589C2.1614 3.1065 2.0924 3.11621 2.04 3.11621V1.11621C1.64448 1.11621 1.27589 1.26611 0.992892 1.5491L2.40711 2.96332ZM2.04 3.11621H3.92V1.11621H2.04V3.11621ZM3.92 3.11621C3.88786 3.11621 3.81962 3.11104 3.73425 3.07589C3.64444 3.03891 3.5632 2.97987 3.50074 2.907L5.01926 1.60542C4.71233 1.24733 4.29659 1.11621 3.92 1.11621V3.11621ZM3.60921 3.01547C3.53634 2.95301 3.4773 2.87177 3.44032 2.78196C3.40517 2.69659 3.4 2.62835 3.4 2.59621H5.4C5.4 2.21962 5.26888 1.80388 4.91079 1.49695L3.60921 3.01547ZM3.4 2.59621V13.7162H5.4V2.59621H3.4ZM4.4 14.7162H10.74V12.7162H4.4V14.7162ZM10.74 14.7162C10.7064 14.7162 10.648 14.7106 10.5776 14.6832C10.505 14.655 10.4417 14.6122 10.3929 14.5633L11.8071 13.1491C11.5046 12.8466 11.1196 12.7162 10.74 12.7162V14.7162ZM10.3929 14.5633C10.3535 14.5239 10.311 14.4665 10.2803 14.392C10.2497 14.3176 10.24 14.2486 10.24 14.1962H12.24C12.24 13.8007 12.0901 13.4321 11.8071 13.1491L10.3929 14.5633ZM10.24 14.1962V15.6362H12.24V14.1962H10.24ZM10.24 15.6362C10.24 15.5838 10.2497 15.5148 10.2803 15.4405C10.311 15.3659 10.3535 15.3085 10.3929 15.2691L11.8071 16.6833C12.0901 16.4003 12.24 16.0317 12.24 15.6362H10.24ZM10.3929 15.2691C10.4417 15.2203 10.505 15.1774 10.5776 15.1492C10.648 15.1218 10.7064 15.1162 10.74 15.1162V17.1162C11.1196 17.1162 11.5046 16.9859 11.8071 16.6833L10.3929 15.2691ZM10.74 15.1162H2.04V17.1162H10.74V15.1162ZM14.0811 15.9162L13.6339 16.8106L13.6465 16.817L13.6594 16.8229L14.0811 15.9162ZM12.7411 14.7962L11.9164 15.3617L11.9218 15.3696L11.9274 15.3774L12.7411 14.7962ZM13.3611 11.0562L12.7542 10.2614L13.3611 11.0562ZM16.3811 9.91621L16.2366 8.92665L16.2267 8.9282L16.3811 9.91621ZM19.1211 9.51621L19.2655 10.5057L20.1211 10.3808V9.51621H19.1211ZM18.6811 7.79621L17.974 8.50332V8.50332L18.6811 7.79621ZM15.5611 8.09621L16.2682 8.80332L16.2682 8.80332L15.5611 8.09621ZM15.2411 8.41621L14.534 7.70911L14.3671 7.87603L14.2924 8.09998L15.2411 8.41621ZM13.0611 8.53621L12.354 9.24332L12.3811 9.27047L12.4103 9.29547L13.0611 8.53621ZM12.9411 8.21621L11.9419 8.17624L11.9411 8.19622V8.21621H12.9411ZM13.4211 7.09621L12.6211 6.4962L12.618 6.50036L13.4211 7.09621ZM14.8811 5.99621L15.306 6.90145L15.3135 6.89792L15.321 6.89427L14.8811 5.99621ZM21.6811 15.9762L20.974 15.2691L20.9468 15.2963L20.9218 15.3254L21.6811 15.9762ZM19.2011 14.8562H20.2011V11.6365L18.3771 14.2897L19.2011 14.8562ZM17.9611 15.9162L18.4083 16.8106L18.4172 16.8062L18.4259 16.8016L17.9611 15.9162ZM18.4411 13.6762L17.7241 12.9791H17.7241L18.4411 13.6762ZM19.1411 11.1962H20.1411V10.0235L18.9831 10.2088L19.1411 11.1962ZM17.1411 11.5162L17.2957 12.5042L17.2991 12.5037L17.1411 11.5162ZM15.3611 14.0562L14.7919 14.8784L14.8098 14.8908L14.8283 14.9024L15.3611 14.0562ZM15.9611 15.3162C15.4156 15.3162 14.9343 15.2102 14.5028 15.0095L13.6594 16.8229C14.3746 17.1556 15.1466 17.3162 15.9611 17.3162V15.3162ZM14.5283 15.0218C14.1005 14.8079 13.7849 14.537 13.5548 14.215L11.9274 15.3774C12.364 15.9888 12.9417 16.4645 13.6339 16.8106L14.5283 15.0218ZM13.5658 14.2307C13.3587 13.9287 13.2611 13.6121 13.2611 13.2562H11.2611C11.2611 14.0203 11.4835 14.7304 11.9164 15.3617L13.5658 14.2307ZM13.2611 13.2562C13.2611 12.6677 13.4773 12.2257 13.968 11.851L12.7542 10.2614C11.7783 11.0067 11.2611 12.0314 11.2611 13.2562H13.2611ZM13.968 11.851C14.5263 11.4247 15.3573 11.0883 16.5355 10.9042L16.2267 8.9282C14.8449 9.1441 13.6626 9.56774 12.7542 10.2614L13.968 11.851ZM16.5255 10.9057L19.2655 10.5057L18.9766 8.5267L16.2366 8.9267L16.5255 10.9057ZM20.1211 9.51621V9.09621H18.1211V9.51621H20.1211ZM20.1211 9.09621C20.1211 8.361 19.9313 7.6322 19.3882 7.0891L17.974 8.50332C18.0176 8.54688 18.1211 8.68476 18.1211 9.09621H20.1211ZM19.3882 7.0891C18.827 6.52793 18.0457 6.35621 17.2811 6.35621V8.35621C17.7965 8.35621 17.9485 8.47783 17.974 8.50332L19.3882 7.0891ZM17.2811 6.35621C16.7313 6.35621 16.1802 6.45454 15.7066 6.73872L16.7356 8.4537C16.7953 8.41788 16.9509 8.35621 17.2811 8.35621V6.35621ZM15.7066 6.73872C15.3876 6.93011 15.0982 7.14493 14.854 7.3891L16.2682 8.80332C16.3707 8.70082 16.5212 8.58231 16.7356 8.4537L15.7066 6.73872ZM14.854 7.3891C14.694 7.5491 14.5873 7.65577 14.534 7.70911L15.9482 9.12332C16.0015 9.06998 16.1082 8.96332 16.2682 8.80332L14.854 7.3891ZM14.2924 8.09998C14.3077 8.05399 14.3601 7.92842 14.5014 7.81534C14.654 7.69324 14.822 7.65621 14.9411 7.65621V9.65621C15.2068 9.65621 15.4982 9.57918 15.7508 9.37708C15.9921 9.184 16.1211 8.93843 16.1898 8.73244L14.2924 8.09998ZM14.9411 7.65621H13.3811V9.65621H14.9411V7.65621ZM13.3811 7.65621C13.4345 7.65621 13.4974 7.66556 13.5622 7.68988C13.6267 7.71407 13.6768 7.7469 13.7119 7.77695L12.4103 9.29547C12.68 9.52667 13.0161 9.65621 13.3811 9.65621V7.65621ZM13.7682 7.8291C13.8299 7.89076 13.8777 7.96571 13.9074 8.04509C13.936 8.12138 13.9411 8.18301 13.9411 8.21621H11.9411C11.9411 8.5638 12.0533 8.94258 12.354 9.24332L13.7682 7.8291ZM13.9403 8.25618C13.9423 8.20546 13.9768 8.02547 14.2242 7.69206L12.618 6.50036C12.252 6.99361 11.9665 7.5603 11.9419 8.17624L13.9403 8.25618ZM14.2211 7.69621C14.4144 7.43845 14.7508 7.16205 15.306 6.90145L14.4562 5.09097C13.7047 5.4437 13.0678 5.90064 12.6211 6.49621L14.2211 7.69621ZM15.321 6.89427C15.8008 6.65923 16.4469 6.51621 17.3011 6.51621V4.51621C16.2353 4.51621 15.268 4.69319 14.4412 5.09815L15.321 6.89427ZM17.3011 6.51621C18.7546 6.51621 19.5891 6.84674 20.0406 7.28989L21.4416 5.86253C20.4531 4.89235 18.9942 4.51621 17.3011 4.51621V6.51621ZM20.0406 7.28989C20.5422 7.78222 20.8211 8.43797 20.8211 9.35621H22.8211C22.8211 7.98112 22.38 6.78354 21.4416 5.86253L20.0406 7.28989ZM20.8211 9.35621V15.6362H22.8211V9.35621H20.8211ZM20.8211 15.6362C20.8211 15.5838 20.8308 15.5148 20.8614 15.4405C20.8921 15.3659 20.9346 15.3085 20.974 15.2691L22.3882 16.6833C22.6712 16.4003 22.8211 16.0317 22.8211 15.6362H20.8211ZM20.9218 15.3254C20.9843 15.2526 21.0655 15.1935 21.1553 15.1565C21.2407 15.1214 21.309 15.1162 21.3411 15.1162V17.1162C21.7177 17.1162 22.1334 16.9851 22.4403 16.627L20.9218 15.3254ZM21.3411 15.1162H19.6811V17.1162H21.3411V15.1162ZM19.6811 15.1162C19.7335 15.1162 19.8025 15.1259 19.8768 15.1565C19.9514 15.1872 20.0088 15.2297 20.0482 15.2691L18.634 16.6833C18.917 16.9663 19.2856 17.1162 19.6811 17.1162V15.1162ZM20.0482 15.2691C20.0876 15.3085 20.1301 15.3659 20.1608 15.4405C20.1914 15.5148 20.2011 15.5838 20.2011 15.6362H18.2011C18.2011 16.0317 18.351 16.4003 18.634 16.6833L20.0482 15.2691ZM20.2011 15.6362V14.8562H18.2011V15.6362H20.2011ZM18.3771 14.2897C18.1898 14.5621 17.9093 14.814 17.4963 15.0308L18.4259 16.8016C19.0795 16.4585 19.6258 16.0036 20.0251 15.4227L18.3771 14.2897ZM17.5139 15.0218C17.1585 15.1995 16.6564 15.3162 15.9611 15.3162V17.3162C16.8657 17.3162 17.697 17.1663 18.4083 16.8106L17.5139 15.0218ZM16.6411 15.3962C17.6161 15.3962 18.4842 15.0665 19.1581 14.3733L17.7241 12.9791C17.4647 13.246 17.1328 13.3962 16.6411 13.3962V15.3962ZM19.1581 14.3733C19.8628 13.6484 20.1411 12.6689 20.1411 11.5962H18.1411C18.1411 12.3369 17.9527 12.744 17.7241 12.9791L19.1581 14.3733ZM20.1411 11.5962V11.1962H18.1411V11.5962H20.1411ZM18.9831 10.2088L16.9831 10.5288L17.2991 12.5037L19.2991 12.1837L18.9831 10.2088ZM16.9865 10.5282C16.1613 10.6574 15.4195 10.8755 14.8597 11.2503C14.2546 11.6555 13.8411 12.2676 13.8411 13.0562H15.8411C15.8411 13.0303 15.8451 13.0274 15.8462 13.0254C15.8508 13.0176 15.8782 12.9753 15.9725 12.9121C16.1794 12.7736 16.5875 12.615 17.2957 12.5042L16.9865 10.5282ZM13.8411 13.0562C13.8411 13.8063 14.1716 14.449 14.7919 14.8784L15.9303 13.234C15.8742 13.1952 15.8611 13.1703 15.8583 13.1649C15.8553 13.159 15.8411 13.1309 15.8411 13.0562H13.8411ZM14.8283 14.9024C15.372 15.2448 15.9899 15.3962 16.6411 15.3962V13.3962C16.3056 13.3962 16.0702 13.321 15.8939 13.21L14.8283 14.9024ZM25.8064 15.8562L26.2175 14.9446L25.8064 15.8562ZM24.2864 14.7962L23.4957 15.4084L23.5067 15.4226L23.5182 15.4364L24.2864 14.7962ZM23.9264 13.4162L23.2756 12.657L23.2465 12.6819L23.2193 12.7091L23.9264 13.4162ZM26.1664 13.4562L25.3664 14.0562L25.4426 14.1578L25.5417 14.2371L26.1664 13.4562ZM26.6064 13.8362L25.9448 14.586L25.9554 14.5954L25.9662 14.6044L26.6064 13.8362ZM27.4064 14.3162L27.0278 15.2418L27.0526 15.2519L27.0779 15.2607L27.4064 14.3162ZM29.7064 14.1762L30.2209 15.0337L30.2333 15.0263L30.2455 15.0185L29.7064 14.1762ZM29.9664 12.6362L29.203 13.2822L29.2299 13.3139L29.2593 13.3433L29.9664 12.6362ZM29.1464 12.1762L28.7918 13.1112L28.8108 13.1184L28.8302 13.1249L29.1464 12.1762ZM27.3864 11.6962L27.6016 10.7196L27.5936 10.7179L27.3864 11.6962ZM24.8664 10.5962L24.1873 11.3304L24.1964 11.3386L24.8664 10.5962ZM24.5464 7.13621L25.3712 7.70179L25.3785 7.69091L24.5464 7.13621ZM25.9664 5.97621L26.3904 6.88194L26.3985 6.87803L25.9664 5.97621ZM30.5864 5.95621L30.1768 6.86848L30.1846 6.87198L30.1925 6.87536L30.5864 5.95621ZM32.0664 6.97621L31.2982 7.61639L31.3044 7.62383L31.3107 7.63114L32.0664 6.97621ZM30.3064 8.31621L31.1064 7.71621L31.0136 7.59242L30.8876 7.50248L30.3064 8.31621ZM29.8464 7.95621L29.1641 8.68727L29.1892 8.71068L29.2158 8.73232L29.8464 7.95621ZM29.1664 7.51621L28.7783 8.43785L29.1664 7.51621ZM27.1064 7.67621L26.4817 6.89534H26.4817L27.1064 7.67621ZM26.8864 9.11621L26.0864 9.71621L26.1018 9.73671L26.1182 9.75639L26.8864 9.11621ZM27.6664 9.57621L27.3118 10.5112L27.326 10.5166L27.3404 10.5216L27.6664 9.57621ZM29.4064 9.99621L29.5973 9.01458L29.5927 9.01372L29.4064 9.99621ZM31.7664 15.4362L31.1876 14.6207L31.1814 14.6252L31.7664 15.4362ZM28.3464 15.3162C27.4269 15.3162 26.7308 15.1761 26.2175 14.9446L25.3953 16.7678C26.242 17.1497 27.2393 17.3162 28.3464 17.3162V15.3162ZM26.2175 14.9446C25.62 14.6752 25.2584 14.4005 25.0546 14.156L23.5182 15.4364C23.9811 15.9919 24.6328 16.4239 25.3953 16.7678L26.2175 14.9446ZM25.0771 14.184C24.9495 14.0192 24.8763 13.8947 24.8374 13.8087C24.798 13.7218 24.8064 13.7026 24.8064 13.7362H22.8064C22.8064 14.367 23.1341 14.9413 23.4957 15.4084L25.0771 14.184ZM24.8064 13.7362C24.8064 13.7694 24.8013 13.831 24.7727 13.9073C24.743 13.9867 24.6952 14.0617 24.6335 14.1233L23.2193 12.7091C22.9186 13.0098 22.8064 13.3886 22.8064 13.7362H24.8064ZM24.5772 14.1755C24.5421 14.2055 24.492 14.2384 24.4275 14.2625C24.3627 14.2869 24.2998 14.2962 24.2464 14.2962V12.2962C23.8814 12.2962 23.5454 12.4258 23.2756 12.657L24.5772 14.1755ZM24.2464 14.2962H25.8864V12.2962H24.2464V14.2962ZM25.8864 14.2962C25.7643 14.2962 25.6435 14.2634 25.5403 14.2045C25.4436 14.1492 25.3892 14.0866 25.3664 14.0562L26.9664 12.8562C26.7499 12.5676 26.3859 12.2962 25.8864 12.2962V14.2962ZM25.5417 14.2371C25.5857 14.2723 25.7129 14.3814 25.9448 14.586L27.268 13.0864C27.0466 12.891 26.8804 12.7468 26.7911 12.6753L25.5417 14.2371ZM25.9662 14.6044C26.286 14.8709 26.6411 15.0836 27.0278 15.2418L27.785 13.3907C27.585 13.3088 27.4068 13.2015 27.2466 13.068L25.9662 14.6044ZM27.0779 15.2607C27.501 15.4079 27.9467 15.4762 28.4064 15.4762V13.4762C28.1462 13.4762 27.9251 13.4379 27.7349 13.3717L27.0779 15.2607ZM28.4064 15.4762C29.0562 15.4762 29.6847 15.3554 30.2209 15.0337L29.1919 13.3187C29.0614 13.397 28.8232 13.4762 28.4064 13.4762V15.4762ZM30.2455 15.0185C30.8578 14.6266 31.2064 14.0135 31.2064 13.2762H29.2064C29.2064 13.3008 29.2038 13.3124 29.2034 13.3141C29.2031 13.3152 29.204 13.3114 29.2072 13.3056C29.2104 13.2999 29.2123 13.2987 29.2088 13.3022C29.2049 13.3062 29.1929 13.3176 29.1674 13.3339L30.2455 15.0185ZM31.2064 13.2762C31.2064 12.7953 31.0542 12.3098 30.6735 11.9291L29.2593 13.3433C29.2498 13.3338 29.2396 13.3216 29.2302 13.307C29.2209 13.2924 29.2143 13.2786 29.2101 13.2673C29.2015 13.2444 29.2064 13.2427 29.2064 13.2762H31.2064ZM30.7298 11.9903C30.4009 11.6016 29.91 11.3767 29.4626 11.2275L28.8302 13.1249C28.9893 13.1779 29.0958 13.2261 29.1622 13.2634C29.2315 13.3022 29.23 13.3141 29.203 13.2822L30.7298 11.9903ZM29.5011 11.2412C29.0444 11.068 28.4001 10.8956 27.6016 10.7196L27.1712 12.6728C27.946 12.8435 28.4751 12.9911 28.7918 13.1112L29.5011 11.2412ZM27.5936 10.7179C26.5428 10.4954 25.8978 10.18 25.5364 9.85382L24.1964 11.3386C24.9284 11.9991 25.9633 12.417 27.1792 12.6745L27.5936 10.7179ZM25.5454 9.86211C25.2423 9.58172 25.0664 9.20768 25.0664 8.63621H23.0664C23.0664 9.69141 23.4238 10.624 24.1874 11.3303L25.5454 9.86211ZM25.0664 8.63621C25.0664 8.31736 25.158 8.01262 25.3711 7.70174L23.7217 6.57068C23.2949 7.19314 23.0664 7.88839 23.0664 8.63621H25.0664ZM25.3785 7.69091C25.5785 7.39086 25.896 7.11328 26.3903 6.8819L25.5425 5.07052C24.7834 5.42581 24.1543 5.92156 23.7144 6.58151L25.3785 7.69091ZM26.3985 6.87803C26.8752 6.6496 27.4809 6.51621 28.2464 6.51621V4.51621C27.2519 4.51621 26.3376 4.68949 25.5343 5.07439L26.3985 6.87803ZM28.2464 6.51621C29.0482 6.51621 29.6817 6.64619 30.1768 6.86848L30.996 5.04394C30.1844 4.67956 29.258 4.51621 28.2464 4.51621V6.51621ZM30.1925 6.87536C30.7511 7.11475 31.0959 7.37361 31.2982 7.61639L32.8346 6.33603C32.3703 5.77881 31.7284 5.35767 30.9803 5.03707L30.1925 6.87536ZM31.3107 7.63114C31.4457 7.78687 31.5203 7.90363 31.5586 7.98164C31.5965 8.05879 31.5864 8.07252 31.5864 8.03621H33.5864C33.5864 7.36695 33.222 6.78265 32.8221 6.32128L31.3107 7.63114ZM31.5864 8.03621C31.5864 7.96259 31.6016 7.88237 31.6352 7.80539C31.6681 7.73025 31.7095 7.67891 31.7393 7.6491L33.1535 9.06332C33.4138 8.80304 33.5864 8.4492 33.5864 8.03621H31.5864ZM31.7393 7.6491C31.7901 7.59826 31.858 7.55055 31.94 7.51773C32.0209 7.48538 32.0937 7.47621 32.1464 7.47621V9.47621C32.5138 9.47621 32.8737 9.34311 33.1535 9.06332L31.7393 7.6491ZM32.1464 7.47621H30.6464V9.47621H32.1464V7.47621ZM30.6464 7.47621C30.6953 7.47621 30.7798 7.48554 30.8772 7.53139C30.9778 7.57873 31.0549 7.64758 31.1064 7.71621L29.5064 8.91621C29.796 9.30239 30.2213 9.47621 30.6464 9.47621V7.47621ZM30.8876 7.50248C30.8222 7.4557 30.6902 7.35333 30.477 7.1801L29.2158 8.73232C29.4293 8.90576 29.604 9.04339 29.7252 9.12994L30.8876 7.50248ZM30.5287 7.22515C30.2422 6.95774 29.9158 6.74672 29.5545 6.59457L28.7783 8.43785C28.9237 8.49903 29.0506 8.58135 29.1641 8.68727L30.5287 7.22515ZM29.5545 6.59458C29.1466 6.42286 28.7004 6.35621 28.2464 6.35621V8.35621C28.5124 8.35621 28.6795 8.39623 28.7783 8.43785L29.5545 6.59458ZM28.2464 6.35621C27.6241 6.35621 26.9896 6.48906 26.4817 6.89534L27.7311 8.45708C27.7566 8.43669 27.882 8.35621 28.2464 8.35621V6.35621ZM26.4817 6.89534C25.9737 7.30177 25.7064 7.87112 25.7064 8.51621H27.7064C27.7064 8.49381 27.7085 8.4814 27.7095 8.47682C27.7104 8.47259 27.7107 8.47311 27.7093 8.47614C27.7078 8.47922 27.7068 8.48025 27.7082 8.47851C27.7098 8.47651 27.7162 8.46899 27.7311 8.45708L26.4817 6.89534ZM25.7064 8.51621C25.7064 8.92808 25.8122 9.35061 26.0864 9.71621L27.6864 8.51621C27.6926 8.5245 27.6979 8.53317 27.7021 8.5415C27.7062 8.54975 27.7083 8.55591 27.7092 8.55886C27.711 8.56479 27.7064 8.55311 27.7064 8.51621H25.7064ZM26.1182 9.75639C26.4254 10.125 26.8938 10.3527 27.3118 10.5112L28.0211 8.64121C27.8629 8.58121 27.7563 8.52931 27.6894 8.48984C27.6177 8.44759 27.6229 8.43792 27.6546 8.47603L26.1182 9.75639ZM27.3404 10.5216C27.797 10.679 28.4342 10.8296 29.2201 10.9787L29.5927 9.01372C28.832 8.86944 28.3091 8.74005 27.9924 8.63084L27.3404 10.5216ZM29.2155 10.9778C30.3276 11.1941 31.0345 11.5232 31.4491 11.8848C31.826 12.2136 32.0064 12.6046 32.0064 13.1362H34.0064C34.0064 12.0411 33.5868 11.0955 32.7637 10.3776C31.9783 9.69251 30.8852 9.26503 29.5973 9.0146L29.2155 10.9778ZM32.0064 13.1362C32.0064 13.7328 31.7721 14.206 31.1877 14.6207L32.3452 16.2517C33.4141 15.4931 34.0064 14.433 34.0064 13.1362H32.0064ZM31.1814 14.6252C30.6008 15.044 29.6959 15.3162 28.3464 15.3162V17.3162C29.9303 17.3162 31.3054 17.0017 32.3514 16.2472L31.1814 14.6252ZM35.2105 2.05621L35.8613 2.81547L35.8904 2.79047L35.9176 2.76332L35.2105 2.05621ZM37.5705 2.05621L36.8112 2.707L36.8613 2.76541L36.9197 2.81547L37.5705 2.05621ZM37.5705 15.9762L36.8634 15.2691L36.8362 15.2963L36.8112 15.3254L37.5705 15.9762ZM35.5505 15.1162C35.6029 15.1162 35.6719 15.1259 35.7462 15.1565C35.8208 15.1872 35.8781 15.2297 35.9176 15.2691L34.5034 16.6833C34.7864 16.9663 35.1549 17.1162 35.5505 17.1162V15.1162ZM35.9176 15.2691C35.957 15.3085 35.9994 15.3659 36.0301 15.4405C36.0608 15.5148 36.0705 15.5838 36.0705 15.6362H34.0705C34.0705 16.0317 34.2204 16.4003 34.5034 16.6833L35.9176 15.2691ZM36.0705 15.6362V2.39621H34.0705V15.6362H36.0705ZM36.0705 2.39621C36.0705 2.42835 36.0653 2.49659 36.0301 2.58196C35.9932 2.67177 35.9341 2.75301 35.8613 2.81547L34.5597 1.29695C34.2016 1.60388 34.0705 2.01962 34.0705 2.39621H36.0705ZM35.9176 2.76332C35.8781 2.80275 35.8208 2.84519 35.7462 2.87589C35.6719 2.9065 35.6029 2.91621 35.5505 2.91621V0.91621C35.1549 0.91621 34.7864 1.06611 34.5034 1.34911L35.9176 2.76332ZM35.5505 2.91621H37.2305V0.91621H35.5505V2.91621ZM37.2305 2.91621C37.1983 2.91621 37.1301 2.91104 37.0447 2.87589C36.9549 2.83891 36.8737 2.77987 36.8112 2.707L38.3297 1.40542C38.0228 1.04733 37.6071 0.91621 37.2305 0.91621V2.91621ZM36.9197 2.81547C36.8468 2.75301 36.7878 2.67177 36.7508 2.58196C36.7156 2.49659 36.7105 2.42835 36.7105 2.39621H38.7105C38.7105 2.01962 38.5793 1.60388 38.2213 1.29695L36.9197 2.81547ZM36.7105 2.39621V15.6362H38.7105V2.39621H36.7105ZM36.7105 15.6362C36.7105 15.5838 36.7202 15.5148 36.7508 15.4405C36.7815 15.3659 36.8239 15.3085 36.8634 15.2691L38.2776 16.6833C38.5606 16.4003 38.7105 16.0317 38.7105 15.6362H36.7105ZM36.8112 15.3254C36.8737 15.2526 36.9549 15.1935 37.0447 15.1565C37.1301 15.1214 37.1983 15.1162 37.2305 15.1162V17.1162C37.6071 17.1162 38.0228 16.9851 38.3297 16.627L36.8112 15.3254ZM37.2305 15.1162H35.5505V17.1162H37.2305V15.1162ZM41.303 15.0362L40.6013 15.7488L40.6068 15.7541L41.303 15.0362ZM39.923 11.3962L40.9224 11.3623L40.9222 11.3562L39.923 11.3962ZM39.903 10.8962H38.903V10.9162L38.9038 10.9362L39.903 10.8962ZM41.203 6.95621L40.4658 6.28047L40.4607 6.28611L41.203 6.95621ZM48.503 6.95621L47.7555 7.62059L47.7607 7.62631L48.503 6.95621ZM49.663 11.5562L48.9559 10.8491L48.9559 10.8491L49.663 11.5562ZM42.663 11.6962V10.6962H41.663V11.6962H42.663ZM42.663 11.8562H41.663V11.8741L41.6636 11.8919L42.663 11.8562ZM43.263 13.7162L42.4656 14.3197L42.4747 14.3317L42.4842 14.3435L43.263 13.7162ZM46.703 13.5162L45.929 12.883L45.9221 12.8914L45.9155 12.8999L46.703 13.5162ZM46.983 13.2562L47.3544 14.1847L47.4288 14.1549L47.4975 14.1137L46.983 13.2562ZM49.383 13.2962L48.7428 14.0644L48.7714 14.0883L48.8017 14.1099L49.383 13.2962ZM48.943 14.7162L48.1918 14.0561L48.1904 14.0577L48.943 14.7162ZM47.323 15.8362L47.7355 16.7472L47.323 15.8362ZM47.043 9.99621V10.9962H48.043V9.99621H47.043ZM46.443 8.07621L45.6642 8.70354L45.6738 8.71542L45.6837 8.727L46.443 8.07621ZM43.243 8.07621L44.0131 8.71429L44.0217 8.70354L43.243 8.07621ZM42.663 9.99621H41.663V10.9962H42.663V9.99621ZM44.863 15.3162C43.5694 15.3162 42.6534 14.9528 41.9991 14.3183L40.6068 15.7541C41.7125 16.8263 43.1699 17.3162 44.863 17.3162V15.3162ZM42.0046 14.3236C41.3694 13.6982 40.9697 12.7577 40.9224 11.3623L38.9235 11.4301C38.9829 13.1814 39.5032 14.6675 40.6014 15.7488L42.0046 14.3236ZM40.9222 11.3562L40.9022 10.8562L38.9038 10.9362L38.9238 11.4362L40.9222 11.3562ZM40.903 10.8962C40.903 9.40353 41.2879 8.35441 41.9452 7.62631L40.4607 6.28611C39.3847 7.47801 38.903 9.05555 38.903 10.8962H40.903ZM41.9401 7.63194C42.5952 6.91731 43.5193 6.51621 44.843 6.51621V4.51621C43.0733 4.51621 41.5707 5.07511 40.4658 6.28049L41.9401 7.63194ZM44.843 6.51621C46.2166 6.51621 47.1354 6.92293 47.7556 7.62057L49.2504 6.29185C48.1638 5.06949 46.6426 4.51621 44.843 4.51621V6.51621ZM47.7607 7.62631C48.4245 8.36165 48.803 9.38251 48.803 10.7962H50.803C50.803 9.00991 50.3147 7.47077 49.2452 6.28611L47.7607 7.62631ZM48.803 10.7962V11.2162H50.803V10.7962H48.803ZM48.803 11.2162C48.803 11.1638 48.8127 11.0948 48.8433 11.0205C48.874 10.9459 48.9164 10.8885 48.9559 10.8491L50.3701 12.2633C50.6531 11.9803 50.803 11.6117 50.803 11.2162H48.803ZM48.9559 10.8491C49.0047 10.8003 49.068 10.7574 49.1405 10.7292C49.211 10.7018 49.2694 10.6962 49.303 10.6962V12.6962C49.6826 12.6962 50.0675 12.5659 50.3701 12.2633L48.9559 10.8491ZM49.303 10.6962H42.663V12.6962H49.303V10.6962ZM41.663 11.6962V11.8562H43.663V11.6962H41.663ZM41.6636 11.8919C41.6961 12.8006 41.9442 13.6308 42.4656 14.3197L44.0604 13.1128C43.835 12.815 43.6832 12.4051 43.6623 11.8205L41.6636 11.8919ZM42.4842 14.3435C43.0778 15.0804 43.902 15.4362 44.843 15.4362V13.4362C44.4506 13.4362 44.2215 13.3121 44.0417 13.0889L42.4842 14.3435ZM44.843 15.4362C45.9193 15.4362 46.8264 14.981 47.4905 14.1325L45.9155 12.8999C45.6195 13.2781 45.2866 13.4362 44.843 13.4362V15.4362ZM47.4769 14.1494C47.4975 14.1243 47.5138 14.1056 47.526 14.0922C47.5384 14.0786 47.5441 14.0733 47.5434 14.074C47.5429 14.0745 47.5397 14.0775 47.534 14.0822C47.5284 14.0868 47.519 14.0943 47.506 14.1035C47.4834 14.1195 47.4318 14.1537 47.3544 14.1847L46.6116 12.3277C46.4079 12.4092 46.2606 12.5359 46.1825 12.6084C46.0906 12.6938 46.0054 12.7896 45.929 12.883L47.4769 14.1494ZM47.4975 14.1137C47.4397 14.1484 47.3901 14.1679 47.3579 14.1786C47.3254 14.1895 47.3019 14.1942 47.2918 14.196C47.2737 14.1992 47.2805 14.1962 47.323 14.1962V12.1962C47.1365 12.1962 46.7842 12.2093 46.4685 12.3987L47.4975 14.1137ZM47.323 14.1962H49.083V12.1962H47.323V14.1962ZM49.083 14.1962C49.0501 14.1962 48.9967 14.1916 48.9317 14.1699C48.8649 14.1476 48.7998 14.1119 48.7428 14.0644L50.0232 12.528C49.7365 12.2891 49.3993 12.1962 49.083 12.1962V14.1962ZM48.8017 14.1099C48.7291 14.0581 48.6502 13.9767 48.5935 13.8634C48.5377 13.7518 48.523 13.6481 48.523 13.5762H50.523C50.523 13.1509 50.3344 12.7469 49.9642 12.4825L48.8017 14.1099ZM48.523 13.5762C48.523 13.5351 48.5346 13.5535 48.4867 13.6478C48.439 13.7414 48.3489 13.8773 48.1918 14.0561L49.6941 15.3763C50.1227 14.8887 50.523 14.2729 50.523 13.5762H48.523ZM48.1904 14.0577C47.939 14.345 47.5322 14.6437 46.9105 14.9253L47.7355 16.7472C48.5271 16.3887 49.2003 15.9407 49.6955 15.3747L48.1904 14.0577ZM46.9105 14.9253C46.357 15.1759 45.6824 15.3162 44.863 15.3162V17.3162C45.9102 17.3162 46.8756 17.1365 47.7355 16.7472L46.9105 14.9253ZM48.043 9.99621V9.95621H46.043V9.99621H48.043ZM48.043 9.95621C48.043 8.99928 47.797 8.11929 47.2022 7.42542L45.6837 8.727C45.889 8.96646 46.043 9.3398 46.043 9.95621H48.043ZM47.2217 7.44888C46.624 6.70686 45.79 6.35621 44.843 6.35621V8.35621C45.2559 8.35621 45.4886 8.48556 45.6642 8.70354L47.2217 7.44888ZM44.843 6.35621C43.8959 6.35621 43.062 6.70686 42.4642 7.44888L44.0217 8.70354C44.1973 8.48556 44.43 8.35621 44.843 8.35621V6.35621ZM42.4729 7.43819C41.8982 8.13191 41.663 9.00705 41.663 9.95621H43.663C43.663 9.33204 43.8145 8.95384 44.013 8.71423L42.4729 7.43819ZM41.663 9.95621V9.99621H43.663V9.95621H41.663ZM42.663 10.9962H47.043V8.99621H42.663V10.9962ZM53.3455 15.8562L53.7566 14.9446L53.3455 15.8562ZM51.8255 14.7962L51.0347 15.4084L51.0457 15.4226L51.0572 15.4364L51.8255 14.7962ZM51.4655 13.4162L50.8147 12.657L50.7855 12.6819L50.7584 12.7091L51.4655 13.4162ZM53.7055 13.4562L52.9055 14.0562L52.9816 14.1578L53.0808 14.2371L53.7055 13.4562ZM54.1455 13.8362L53.4838 14.586L53.4944 14.5954L53.5053 14.6044L54.1455 13.8362ZM54.9455 14.3162L54.5668 15.2418L54.5916 15.2519L54.6169 15.2607L54.9455 14.3162ZM57.2455 14.1762L57.76 15.0337L57.7724 15.0263L57.7845 15.0185L57.2455 14.1762ZM57.5055 12.6362L56.7421 13.2822L56.769 13.3139L56.7984 13.3433L57.5055 12.6362ZM56.6855 12.1762L56.3308 13.1112L56.3499 13.1184L56.3692 13.1249L56.6855 12.1762ZM54.9255 11.6962L55.1407 10.7196L55.1326 10.7179L54.9255 11.6962ZM52.4055 10.5962L51.7264 11.3304L51.7355 11.3386L52.4055 10.5962ZM52.0855 7.13621L52.9103 7.70179L52.9175 7.69091L52.0855 7.13621ZM53.5055 5.97621L53.9294 6.88194L53.9376 6.87803L53.5055 5.97621ZM58.1255 5.95621L57.7159 6.86848L57.7237 6.87198L57.7315 6.87536L58.1255 5.95621ZM59.6055 6.97621L58.8372 7.61639L58.8434 7.62383L58.8498 7.63114L59.6055 6.97621ZM57.8455 8.31621L58.6455 7.71621L58.5526 7.59242L58.4267 7.50248L57.8455 8.31621ZM57.3855 7.95621L56.7032 8.68727L56.7282 8.71068L56.7549 8.73232L57.3855 7.95621ZM56.7055 7.51621L56.3174 8.43785H56.3174L56.7055 7.51621ZM54.6455 7.67621L54.0208 6.89534L54.6455 7.67621ZM54.4255 9.11621L53.6255 9.71621L53.6408 9.73671L53.6572 9.75639L54.4255 9.11621ZM55.2055 9.57621L54.8508 10.5112L54.8651 10.5166L54.8795 10.5216L55.2055 9.57621ZM56.9455 9.99621L57.1363 9.01458L57.1318 9.01372L56.9455 9.99621ZM59.3055 15.4362L58.7267 14.6207L58.7205 14.6252L59.3055 15.4362ZM55.8855 15.3162C54.966 15.3162 54.2698 15.1761 53.7566 14.9446L52.9344 16.7678C53.7811 17.1497 54.7783 17.3162 55.8855 17.3162V15.3162ZM53.7566 14.9446C53.1591 14.6752 52.7974 14.4005 52.5937 14.156L51.0572 15.4364C51.5202 15.9919 52.1718 16.4239 52.9344 16.7678L53.7566 14.9446ZM52.6162 14.184C52.4886 14.0192 52.4154 13.8947 52.3764 13.8087C52.3371 13.7218 52.3455 13.7026 52.3455 13.7362H50.3455C50.3455 14.367 50.6732 14.9413 51.0347 15.4084L52.6162 14.184ZM52.3455 13.7362C52.3455 13.7694 52.3404 13.831 52.3118 13.9073C52.282 13.9867 52.2342 14.0617 52.1726 14.1233L50.7584 12.7091C50.4576 13.0098 50.3455 13.3886 50.3455 13.7362H52.3455ZM52.1163 14.1755C52.0812 14.2055 52.0311 14.2384 51.9666 14.2625C51.9017 14.2869 51.8389 14.2962 51.7855 14.2962V12.2962C51.4205 12.2962 51.0844 12.4258 50.8147 12.657L52.1163 14.1755ZM51.7855 14.2962H53.4255V12.2962H51.7855V14.2962ZM53.4255 14.2962C53.3034 14.2962 53.1825 14.2634 53.0793 14.2045C52.9826 14.1492 52.9283 14.0866 52.9055 14.0562L54.5055 12.8562C54.289 12.5676 53.925 12.2962 53.4255 12.2962V14.2962ZM53.0808 14.2371C53.1248 14.2723 53.252 14.3814 53.4838 14.586L54.8071 13.0864C54.5856 12.891 54.4195 12.7468 54.3302 12.6753L53.0808 14.2371ZM53.5053 14.6044C53.8251 14.8709 54.1802 15.0836 54.5668 15.2418L55.3241 13.3907C55.1241 13.3088 54.9459 13.2015 54.7857 13.068L53.5053 14.6044ZM54.6169 15.2607C55.0401 15.4079 55.4857 15.4762 55.9455 15.4762V13.4762C55.6852 13.4762 55.4642 13.4379 55.274 13.3717L54.6169 15.2607ZM55.9455 15.4762C56.5953 15.4762 57.2238 15.3554 57.76 15.0337L56.731 13.3187C56.6005 13.397 56.3623 13.4762 55.9455 13.4762V15.4762ZM57.7845 15.0185C58.3969 14.6266 58.7455 14.0135 58.7455 13.2762H56.7455C56.7455 13.3008 56.7429 13.3124 56.7424 13.3141C56.7422 13.3152 56.7431 13.3114 56.7463 13.3056C56.7495 13.2999 56.7513 13.2987 56.7479 13.3022C56.744 13.3062 56.7319 13.3176 56.7064 13.3339L57.7845 15.0185ZM58.7455 13.2762C58.7455 12.7953 58.5933 12.3098 58.2126 11.9291L56.7984 13.3433C56.7889 13.3338 56.7787 13.3216 56.7693 13.307C56.7599 13.2924 56.7534 13.2786 56.7491 13.2673C56.7405 13.2444 56.7455 13.2427 56.7455 13.2762H58.7455ZM58.2689 11.9903C57.94 11.6016 57.4491 11.3767 57.0017 11.2275L56.3692 13.1249C56.5284 13.1779 56.6348 13.2261 56.7012 13.2634C56.7705 13.3022 56.7691 13.3141 56.7421 13.2822L58.2689 11.9903ZM57.0401 11.2412C56.5834 11.068 55.9392 10.8956 55.1406 10.7196L54.7103 12.6728C55.4851 12.8435 56.0142 12.9911 56.3308 13.1112L57.0401 11.2412ZM55.1326 10.7179C54.0819 10.4954 53.4368 10.18 53.0754 9.85382L51.7355 11.3386C52.4674 11.9991 53.5024 12.417 54.7183 12.6745L55.1326 10.7179ZM53.0845 9.86211C52.7814 9.58172 52.6055 9.20768 52.6055 8.63621H50.6055C50.6055 9.69141 50.9629 10.624 51.7264 11.3303L53.0845 9.86211ZM52.6055 8.63621C52.6055 8.31736 52.697 8.01262 52.9102 7.70174L51.2607 6.57068C50.8339 7.19314 50.6055 7.88839 50.6055 8.63621H52.6055ZM52.9175 7.69091C53.1175 7.39086 53.4351 7.11328 53.9294 6.8819L53.0815 5.07052C52.3225 5.42581 51.6934 5.92156 51.2534 6.58151L52.9175 7.69091ZM53.9376 6.87803C54.4143 6.6496 55.02 6.51621 55.7855 6.51621V4.51621C54.791 4.51621 53.8766 4.68949 53.0733 5.07439L53.9376 6.87803ZM55.7855 6.51621C56.5872 6.51621 57.2208 6.64619 57.7159 6.86848L58.5351 5.04394C57.7235 4.67956 56.797 4.51621 55.7855 4.51621V6.51621ZM57.7315 6.87536C58.2901 7.11475 58.6349 7.37361 58.8372 7.61639L60.3737 6.33603C59.9093 5.77881 59.2675 5.35767 58.5194 5.03707L57.7315 6.87536ZM58.8498 7.63114C58.9847 7.78687 59.0594 7.90363 59.0977 7.98164C59.1355 8.05879 59.1255 8.07252 59.1255 8.03621H61.1255C61.1255 7.36695 60.761 6.78265 60.3612 6.32128L58.8498 7.63114ZM59.1255 8.03621C59.1255 7.96259 59.1406 7.88237 59.1743 7.80539C59.2072 7.73025 59.2486 7.67891 59.2784 7.6491L60.6926 9.06332C60.9529 8.80304 61.1255 8.4492 61.1255 8.03621H59.1255ZM59.2784 7.6491C59.3292 7.59826 59.397 7.55055 59.4791 7.51773C59.56 7.48538 59.6328 7.47621 59.6855 7.47621V9.47621C60.0528 9.47621 60.4128 9.34311 60.6926 9.06332L59.2784 7.6491ZM59.6855 7.47621H58.1855V9.47621H59.6855V7.47621ZM58.1855 7.47621C58.2344 7.47621 58.3188 7.48554 58.4163 7.53139C58.5169 7.57873 58.594 7.64758 58.6455 7.71621L57.0455 8.91621C57.3351 9.30239 57.7604 9.47621 58.1855 9.47621V7.47621ZM58.4267 7.50248C58.3612 7.4557 58.2293 7.35333 58.0161 7.1801L56.7549 8.73232C56.9683 8.90576 57.1431 9.04339 57.2642 9.12994L58.4267 7.50248ZM58.0678 7.22515C57.7813 6.95774 57.4549 6.74672 57.0935 6.59457L56.3174 8.43785C56.4627 8.49903 56.5897 8.58135 56.7032 8.68727L58.0678 7.22515ZM57.0935 6.59458C56.6857 6.42286 56.2395 6.35621 55.7855 6.35621V8.35621C56.0515 8.35621 56.2186 8.39623 56.3174 8.43785L57.0935 6.59458ZM55.7855 6.35621C55.1632 6.35621 54.5286 6.48906 54.0208 6.89534L55.2702 8.45708C55.2957 8.43669 55.4211 8.35621 55.7855 8.35621V6.35621ZM54.0208 6.89534C53.5127 7.30177 53.2455 7.87112 53.2455 8.51621H55.2455C55.2455 8.49381 55.2476 8.4814 55.2486 8.47682C55.2495 8.47259 55.2498 8.47311 55.2483 8.47614C55.2469 8.47922 55.2458 8.48025 55.2472 8.47851C55.2488 8.47651 55.2553 8.46899 55.2702 8.45708L54.0208 6.89534ZM53.2455 8.51621C53.2455 8.92808 53.3513 9.35061 53.6255 9.71621L55.2255 8.51621C55.2317 8.5245 55.237 8.53317 55.2411 8.5415C55.2453 8.54975 55.2474 8.55591 55.2483 8.55886C55.2501 8.56479 55.2455 8.55311 55.2455 8.51621H53.2455ZM53.6572 9.75639C53.9644 10.125 54.4328 10.3527 54.8508 10.5112L55.5601 8.64121C55.4019 8.58121 55.2954 8.52931 55.2285 8.48984C55.1568 8.44759 55.1619 8.43792 55.1937 8.47603L53.6572 9.75639ZM54.8795 10.5216C55.3361 10.679 55.9732 10.8296 56.7591 10.9787L57.1318 9.01372C56.371 8.86944 55.8482 8.74005 55.5315 8.63084L54.8795 10.5216ZM56.7546 10.9778C57.8667 11.1941 58.5736 11.5232 58.9882 11.8848C59.3651 12.2136 59.5455 12.6046 59.5455 13.1362H61.5455C61.5455 12.0411 61.1258 11.0955 60.3028 10.3776C59.5173 9.69251 58.4243 9.26503 57.1363 9.0146L56.7546 10.9778ZM59.5455 13.1362C59.5455 13.7328 59.3111 14.206 58.7267 14.6207L59.8842 16.2517C60.9532 15.4931 61.5455 14.433 61.5455 13.1362H59.5455ZM58.7205 14.6252C58.1398 15.044 57.2349 15.3162 55.8855 15.3162V17.3162C57.4693 17.3162 58.8445 17.0017 59.8905 16.2472L58.7205 14.6252ZM66.0695 15.9562L65.4006 16.6995L65.4393 16.7343L65.4814 16.7649L66.0695 15.9562ZM65.7895 15.5162L66.7453 15.2221L66.7432 15.2152L65.7895 15.5162ZM61.7495 2.71621L60.7733 2.93314L60.7828 2.97566L60.7959 3.0172L61.7495 2.71621ZM61.7095 2.53621H60.7095V2.64598L60.7333 2.75314L61.7095 2.53621ZM61.8295 2.25621L62.5366 2.96332L62.5366 2.96332L61.8295 2.25621ZM65.2495 2.29621L64.5424 3.00332L64.5816 3.04248L64.6248 3.07708L65.2495 2.29621ZM65.5095 2.65621L64.5517 2.94356L64.5519 2.94434L65.5095 2.65621ZM68.2295 11.6962L67.2719 11.9843L68.226 15.1553L69.1865 11.9863L68.2295 11.6962ZM70.9695 2.65621L71.9265 2.94628L71.9306 2.93286L71.9343 2.91933L70.9695 2.65621ZM71.2095 2.27621L70.5848 1.49534L70.5646 1.51156L70.5452 1.5288L71.2095 2.27621ZM74.6295 2.25621L73.8703 2.907L73.8953 2.93616L73.9224 2.96332L74.6295 2.25621ZM74.7295 2.71621L75.6827 3.01855L75.6921 2.98891L75.6997 2.95874L74.7295 2.71621ZM70.6695 15.5162L69.7163 15.2139L69.7042 15.2522L69.6951 15.2913L70.6695 15.5162ZM70.3895 15.9562L71.0143 16.7371L71.0228 16.7302L70.3895 15.9562ZM66.6295 15.1162C66.594 15.1162 66.5848 15.112 66.5943 15.1147C66.5992 15.1161 66.6081 15.1191 66.6198 15.1247C66.6315 15.1303 66.6445 15.1379 66.6577 15.1475L65.4814 16.7649C65.8376 17.024 66.2449 17.1162 66.6295 17.1162V15.1162ZM66.7385 15.2129C66.7374 15.2119 66.7378 15.2121 66.739 15.2136C66.7402 15.215 66.7417 15.217 66.7432 15.2193C66.7447 15.2217 66.7456 15.2236 66.7461 15.2246C66.7465 15.2255 66.7462 15.2249 66.7453 15.2221L64.8338 15.8103C64.9397 16.1546 65.1312 16.4571 65.4006 16.6995L66.7385 15.2129ZM66.7432 15.2152L62.7032 2.41522L60.7959 3.0172L64.8359 15.8172L66.7432 15.2152ZM62.7257 2.49928L62.6857 2.31928L60.7333 2.75314L60.7733 2.93314L62.7257 2.49928ZM62.7095 2.53621C62.7095 2.61134 62.6947 2.69608 62.6587 2.78013C62.6231 2.86303 62.5763 2.92361 62.5366 2.96332L61.1224 1.5491C60.8675 1.80401 60.7095 2.14699 60.7095 2.53621H62.7095ZM62.5366 2.96332C62.5068 2.99312 62.4555 3.03449 62.3804 3.06737C62.3034 3.10104 62.2232 3.11621 62.1495 3.11621V1.11621C61.7365 1.11621 61.3827 1.28883 61.1224 1.54911L62.5366 2.96332ZM62.1495 3.11621H64.7695V1.11621H62.1495V3.11621ZM64.7695 3.11621C64.7694 3.11621 64.7696 3.11621 64.7695 3.11621C64.7696 3.11621 64.7694 3.11621 64.7695 3.11621C64.7695 3.11621 64.7695 3.11621 64.7695 3.11621C64.7695 3.11621 64.7695 3.11621 64.7694 3.11621C64.7694 3.11621 64.7693 3.11621 64.7692 3.11621C64.7689 3.1162 64.7686 3.11619 64.7681 3.11617C64.7672 3.11614 64.7658 3.11607 64.764 3.11592C64.7603 3.11563 64.7548 3.11504 64.7476 3.11385C64.7332 3.11145 64.7128 3.10669 64.6884 3.09754C64.6357 3.07777 64.5841 3.04498 64.5424 3.00332L65.9566 1.5891C65.6159 1.24837 65.1838 1.11621 64.7695 1.11621V3.11621ZM64.6248 3.07708C64.6315 3.08243 64.6208 3.07514 64.6039 3.0517C64.586 3.02699 64.5658 2.99039 64.5517 2.94356L66.4674 2.36886C66.3569 2.00073 66.1298 1.71979 65.8742 1.51534L64.6248 3.07708ZM64.5519 2.94434L67.2719 11.9843L69.1871 11.4081L66.4671 2.36808L64.5519 2.94434ZM69.1865 11.9863L71.9265 2.94628L70.0125 2.36614L67.2725 11.4061L69.1865 11.9863ZM71.9343 2.91933C71.9286 2.94027 71.9188 2.96342 71.905 2.9852C71.8915 3.00662 71.879 3.01911 71.8739 3.02362L70.5452 1.5288C70.2887 1.75675 70.0987 2.04854 70.0048 2.39309L71.9343 2.91933ZM71.8342 3.05708C71.8032 3.08188 71.7692 3.09905 71.7393 3.10863C71.7112 3.11763 71.6985 3.11621 71.7095 3.11621V1.11621C71.3231 1.11621 70.9248 1.22337 70.5848 1.49534L71.8342 3.05708ZM71.7095 3.11621H74.3295V1.11621H71.7095V3.11621ZM74.3295 3.11621C74.2564 3.11621 74.1653 3.10111 74.0716 3.05739C73.9786 3.01398 73.9123 2.95605 73.8703 2.907L75.3888 1.60542C75.1241 1.29665 74.7495 1.11621 74.3295 1.11621V3.11621ZM73.9224 2.96332C73.8827 2.92361 73.8359 2.86302 73.8004 2.78013C73.7644 2.69608 73.7495 2.61134 73.7495 2.53621H75.7495C75.7495 2.14699 75.5916 1.80402 75.3366 1.5491L73.9224 2.96332ZM73.7495 2.53621C73.7495 2.53778 73.7492 2.51434 73.7594 2.47368L75.6997 2.95874C75.7365 2.81141 75.7495 2.66798 75.7495 2.53621H73.7495ZM73.7763 2.41387L69.7163 15.2139L71.6227 15.8186L75.6827 3.01855L73.7763 2.41387ZM69.6951 15.2913C69.7001 15.27 69.7101 15.2441 69.7259 15.2193C69.7412 15.1952 69.7547 15.1835 69.7563 15.1823L71.0228 16.7302C71.3288 16.4797 71.5508 16.1447 71.6439 15.7411L69.6951 15.2913ZM69.7648 15.1753C69.8087 15.1402 69.8488 15.1238 69.8704 15.1174C69.8894 15.1118 69.8859 15.1162 69.8495 15.1162V17.1162C70.2287 17.1162 70.653 17.026 71.0142 16.7371L69.7648 15.1753ZM69.8495 15.1162H66.6295V17.1162H69.8495V15.1162ZM76.7148 15.9762L75.9623 16.6347L76.0062 16.6849L76.0563 16.7288L76.7148 15.9762ZM76.7148 2.27621L77.422 2.98332L77.4455 2.95977L77.4674 2.93471L76.7148 2.27621ZM86.8148 10.1762L87.4183 10.9736L87.4251 10.9684L86.8148 10.1762ZM80.4548 11.2962V10.2962H79.4548V11.2962H80.4548ZM80.3148 15.9762L81.0219 16.6833L81.0455 16.6598L81.0674 16.6347L80.3148 15.9762ZM83.9148 8.01621L84.5891 8.7547L84.5906 8.75336L83.9148 8.01621ZM83.9548 5.47621L83.2023 6.13472L83.2099 6.14341L83.2177 6.15194L83.9548 5.47621ZM80.3948 4.99621V3.99621H79.3948V4.99621H80.3948ZM80.3948 8.43621H79.3948V9.43621H80.3948V8.43621ZM77.0748 15.1162C77.1277 15.1162 77.1876 15.126 77.2473 15.1492C77.306 15.1721 77.348 15.2014 77.3734 15.2236L76.0563 16.7288C76.3328 16.9707 76.6832 17.1162 77.0748 17.1162V15.1162ZM77.4674 15.3177C77.4896 15.3431 77.519 15.385 77.5418 15.4438C77.565 15.5034 77.5748 15.5634 77.5748 15.6162H75.5748C75.5748 16.0079 75.7204 16.3582 75.9623 16.6347L77.4674 15.3177ZM77.5748 15.6162V2.63621H75.5748V15.6162H77.5748ZM77.5748 2.63621C77.5748 2.66977 77.5693 2.72818 77.5418 2.79866C77.5136 2.87119 77.4708 2.93446 77.422 2.98332L76.0077 1.5691C75.7052 1.87164 75.5748 2.25663 75.5748 2.63621H77.5748ZM77.4674 2.93471C77.4262 2.98182 77.3639 3.03316 77.281 3.07002C77.1989 3.10649 77.125 3.11621 77.0748 3.11621V1.11621C76.6513 1.11621 76.2529 1.28555 75.9623 1.61771L77.4674 2.93471ZM77.0748 3.11621H82.7348V1.11621H77.0748V3.11621ZM82.7348 3.11621C84.3254 3.11621 85.4378 3.47726 86.1914 4.07811L87.4382 2.51431C86.2185 1.54183 84.6109 1.11621 82.7348 1.11621V3.11621ZM86.1914 4.07811C86.8909 4.63576 87.2948 5.47144 87.2948 6.75621H89.2948C89.2948 5.00098 88.7122 3.53 87.4382 2.51431L86.1914 4.07811ZM87.2948 6.75621C87.2948 8.04207 86.8909 8.85535 86.2046 9.38398L87.4251 10.9684C88.7121 9.97707 89.2948 8.51035 89.2948 6.75621H87.2948ZM86.2114 9.3788C85.456 9.95048 84.3356 10.2962 82.7348 10.2962V12.2962C84.6007 12.2962 86.2004 11.8953 87.4183 10.9736L86.2114 9.3788ZM82.7348 10.2962H80.4548V12.2962H82.7348V10.2962ZM79.4548 11.2962V15.6162H81.4548V11.2962H79.4548ZM79.4548 15.6162C79.4548 15.5634 79.4646 15.5034 79.4878 15.4438C79.5107 15.385 79.5401 15.3431 79.5623 15.3177L81.0674 16.6347C81.3093 16.3582 81.4548 16.0079 81.4548 15.6162H79.4548ZM79.6077 15.2691C79.6566 15.2203 79.7199 15.1774 79.7924 15.1492C79.8629 15.1218 79.9213 15.1162 79.9548 15.1162V17.1162C80.3344 17.1162 80.7194 16.9859 81.0219 16.6833L79.6077 15.2691ZM79.9548 15.1162H77.0748V17.1162H79.9548V15.1162ZM82.6348 9.43621C83.3502 9.43621 84.0461 9.25047 84.5891 8.75469L83.2406 7.27773C83.1702 7.34195 83.0128 7.43621 82.6348 7.43621V9.43621ZM84.5906 8.75336C85.1731 8.21933 85.3948 7.49036 85.3948 6.73621H83.3948C83.3948 7.10206 83.2965 7.22642 83.2391 7.27906L84.5906 8.75336ZM85.3948 6.73621C85.3948 6.01834 85.1867 5.34017 84.692 4.80049L83.2177 6.15194C83.3097 6.25226 83.3948 6.41408 83.3948 6.73621H85.3948ZM84.7074 4.81771C84.1695 4.20293 83.4007 3.99621 82.6348 3.99621V5.99621C83.069 5.99621 83.1802 6.10949 83.2023 6.13472L84.7074 4.81771ZM82.6348 3.99621H80.3948V5.99621H82.6348V3.99621ZM79.3948 4.99621V8.43621H81.3948V4.99621H79.3948ZM80.3948 9.43621H82.6348V7.43621H80.3948V9.43621ZM90.2891 15.9762L89.5365 16.6347L89.5804 16.6849L89.6306 16.7288L90.2891 15.9762ZM90.2891 2.27621L90.9962 2.98332L91.0197 2.95977L91.0416 2.93471L90.2891 2.27621ZM93.5891 2.49621L92.7236 2.99725L92.7335 3.01427L92.744 3.03088L93.5891 2.49621ZM98.3091 9.95621L97.464 10.4909L99.3091 13.407V9.95621H98.3091ZM98.4491 2.27621L99.1562 2.98332L99.1797 2.95977L99.2016 2.93471L98.4491 2.27621ZM101.709 2.27621L100.956 2.93471L100.978 2.95977L101.002 2.98332L101.709 2.27621ZM101.709 15.9762L102.416 16.6833L102.44 16.6598L102.462 16.6347L101.709 15.9762ZM98.4091 15.7362L99.2745 15.2352L99.2604 15.2109L99.245 15.1875L98.4091 15.7362ZM93.7091 8.57621L94.545 8.02745L92.7091 5.23051V8.57621H93.7091ZM93.5491 15.9762L92.8906 15.2236L92.8655 15.2456L92.842 15.2691L93.5491 15.9762ZM90.6491 15.1162C90.7019 15.1162 90.7618 15.126 90.8215 15.1492C90.8803 15.1721 90.9222 15.2014 90.9476 15.2236L89.6306 16.7288C89.907 16.9707 90.2574 17.1162 90.6491 17.1162V15.1162ZM91.0416 15.3177C91.0638 15.3431 91.0932 15.385 91.1161 15.4438C91.1393 15.5034 91.1491 15.5634 91.1491 15.6162H89.1491C89.1491 16.0079 89.2946 16.3582 89.5365 16.6347L91.0416 15.3177ZM91.1491 15.6162V2.63621H89.1491V15.6162H91.1491ZM91.1491 2.63621C91.1491 2.66977 91.1435 2.72818 91.1161 2.79866C91.0879 2.87119 91.045 2.93446 90.9962 2.98332L89.582 1.5691C89.2794 1.87164 89.1491 2.25663 89.1491 2.63621H91.1491ZM91.0416 2.93471C91.0004 2.98182 90.9381 3.03316 90.8552 3.07002C90.7732 3.10649 90.6992 3.11621 90.6491 3.11621V1.11621C90.2255 1.11621 89.8271 1.28555 89.5365 1.61771L91.0416 2.93471ZM90.6491 3.11621H92.9091V1.11621H90.6491V3.11621ZM92.9091 3.11621C92.9226 3.11621 92.8819 3.11806 92.8212 3.08415C92.7583 3.04897 92.7287 3.00598 92.7236 2.99725L94.4545 1.99517C94.1188 1.41537 93.5517 1.11621 92.9091 1.11621V3.11621ZM92.744 3.03088L97.464 10.4909L99.1541 9.42154L94.4341 1.96153L92.744 3.03088ZM99.3091 9.95621V2.63621H97.3091V9.95621H99.3091ZM99.3091 2.63621C99.3091 2.66977 99.3035 2.72818 99.2761 2.79866C99.2479 2.87119 99.205 2.93446 99.1562 2.98332L97.742 1.5691C97.4394 1.87164 97.3091 2.25663 97.3091 2.63621H99.3091ZM99.2016 2.93471C99.1604 2.98182 99.0981 3.03316 99.0152 3.07002C98.9332 3.10649 98.8592 3.11621 98.8091 3.11621V1.11621C98.3855 1.11621 97.9871 1.28555 97.6965 1.61771L99.2016 2.93471ZM98.8091 3.11621H101.349V1.11621H98.8091V3.11621ZM101.349 3.11621C101.299 3.11621 101.225 3.10649 101.143 3.07002C101.06 3.03316 100.998 2.98181 100.956 2.93471L102.462 1.61771C102.171 1.28555 101.773 1.11621 101.349 1.11621V3.11621ZM101.002 2.98332C100.953 2.93447 100.91 2.87119 100.882 2.79866C100.855 2.72818 100.849 2.66977 100.849 2.63621H102.849C102.849 2.25663 102.719 1.87164 102.416 1.5691L101.002 2.98332ZM100.849 2.63621V15.5962H102.849V2.63621H100.849ZM100.849 15.5962C100.849 15.5618 100.855 15.5121 100.876 15.4555C100.897 15.3984 100.927 15.3517 100.956 15.3177L102.462 16.6347C102.72 16.3389 102.849 15.9759 102.849 15.5962H100.849ZM101.002 15.2691C101.051 15.2203 101.114 15.1774 101.187 15.1492C101.257 15.1218 101.315 15.1162 101.349 15.1162V17.1162C101.729 17.1162 102.114 16.9859 102.416 16.6833L101.002 15.2691ZM101.349 15.1162H99.0891V17.1162H101.349V15.1162ZM99.0891 15.1162C99.0755 15.1162 99.1162 15.1144 99.1769 15.1483C99.2398 15.1834 99.2694 15.2264 99.2745 15.2352L97.5436 16.2372C97.8793 16.817 98.4464 17.1162 99.0891 17.1162V15.1162ZM99.245 15.1875L94.545 8.02745L92.8731 9.12497L97.5731 16.285L99.245 15.1875ZM92.7091 8.57621V15.6162H94.7091V8.57621H92.7091ZM92.7091 15.6162C92.7091 15.566 92.7188 15.4921 92.7552 15.4101C92.7921 15.3271 92.8435 15.2648 92.8906 15.2236L94.2076 16.7288C94.5397 16.4382 94.7091 16.0398 94.7091 15.6162H92.7091ZM92.842 15.2691C92.8908 15.2203 92.9541 15.1774 93.0266 15.1492C93.0971 15.1218 93.1555 15.1162 93.1891 15.1162V17.1162C93.5686 17.1162 93.9536 16.9859 94.2562 16.6833L92.842 15.2691ZM93.1891 15.1162H90.6491V17.1162H93.1891V15.1162Z" fill="black" mask="url(#path-1-outside-1_1_284)"/>
</svg>
