<svg width="35" height="37" viewBox="0 0 35 37" fill="none" xmlns="http://www.w3.org/2000/svg">
<path d="M30.7676 13.9746C30.769 13.9761 30.771 13.9771 30.7725 13.9785V13.9795L30.7939 14.001C32.7973 16.0163 34.0699 18.6435 34.4092 21.4648C34.7485 24.2867 34.134 27.1411 32.665 29.5742C31.1961 32.0072 28.9567 33.8797 26.3018 34.8936C23.8125 35.8441 21.0921 35.989 18.5234 35.3154L18.0117 35.1699L17.8857 35.1357C17.5902 35.0689 17.2815 35.0809 16.9902 35.1699H16.9893C14.2726 36.0051 11.3544 35.9081 8.69922 34.8945C6.04399 33.8808 3.80306 32.0084 2.33398 29.5752C0.864921 27.1419 0.251369 24.2869 0.59082 21.4648C0.929894 18.646 2.20091 16.0214 4.20117 14.0068L4.22363 13.9844L4.24805 13.9609L4.25098 13.9561L17.5 0.707031L30.7676 13.9746ZM17.1475 7.13867L7.26465 17.0205L7.26367 17.0215C5.68346 18.6061 4.79651 20.7533 4.79785 22.9912C4.79929 25.2292 5.68931 27.3752 7.27148 28.958C7.94724 29.6354 8.73257 30.1928 9.59375 30.6055L9.96777 30.7734L9.97266 30.7754C10.1211 30.8358 10.2852 30.8477 10.4404 30.8096C10.5954 30.7714 10.7353 30.6851 10.8389 30.5625L10.8379 30.5615C10.9408 30.4396 11.0036 30.2891 11.0156 30.1299C11.0275 29.9705 10.9891 29.8109 10.9053 29.6748C9.69245 27.707 9.03792 25.446 9.01367 23.1348C9.01367 23.1067 9.01961 23.0785 9.03027 23.0527C9.04107 23.0267 9.0574 23.0031 9.07715 22.9834L9.08203 22.9785L9.08691 22.9727L12.8262 19.0068C12.3711 20.4962 12.427 22.131 12.8223 23.6807C13.3322 25.6797 14.4165 27.5904 15.7842 28.958L15.7949 28.9688L15.7988 28.9736C16.2514 29.4219 16.8629 29.6736 17.5 29.6738C18.137 29.674 18.7482 29.4225 19.2012 28.9746L19.2168 28.959C20.5843 27.5913 21.6696 25.6802 22.1797 23.6807C22.5751 22.1305 22.629 20.4956 22.1738 19.0059L25.9141 22.9727L25.9189 22.9785L25.9248 22.9834C25.945 23.0035 25.9609 23.0278 25.9717 23.0537C25.9771 23.0668 25.9807 23.0802 25.9834 23.0938L25.9883 23.1348C25.9637 25.4457 25.3095 27.7064 24.0967 29.6738C24.0124 29.8103 23.9736 29.9699 23.9854 30.1289C23.9973 30.2894 24.0596 30.441 24.1621 30.5625L24.2471 30.6475C24.3366 30.7245 24.4435 30.7808 24.5605 30.8096C24.7158 30.8477 24.8793 30.8355 25.0273 30.7754L25.0332 30.7734C26.0411 30.3494 26.9562 29.7321 27.7285 28.958L27.7295 28.959C29.3121 27.3762 30.2018 25.2295 30.2031 22.9912C30.2045 20.7529 29.317 18.606 27.7363 17.0215V17.0205L17.8545 7.13965L17.501 6.78613L17.1475 7.13867ZM4.26953 13.9336L4.26855 13.9346V13.9355L4.26562 13.9375L4.26953 13.9336Z" fill="#F53838" stroke="black"/>
</svg>
